<svg
        width="16"
        height="14"
        viewBox="0 0 16 14"
        fill="none"
        xmlns="http://www.w3.org/2000/svg"
>
    <path
            d="M1.2973 4.77168C1.2973 2.29583 2.9456 0 5.20268 0C6.76899 0 7.93124 1.03005 8.64865 2.49129C9.36601 1.03014 10.5283 0 12.0946 0C14.352 0 16 2.29622 16 4.77168C16 10.0708 8.64865 13.8378 8.64865 13.8378C8.64865 13.8378 3.69674 11.4539 1.92134 7.54353H6.30694L7.00402 6.30435L7.81825 9.15425L9.72502 6.7027H12.1081V5.83784H9.30201L8.18175 7.27818L7.26625 4.07403L5.80117 6.67866H1.59128C1.68295 6.97462 1.79399 7.26301 1.92134 7.54353L0 7.54348V6.67862L1.59128 6.67866C1.40386 6.07364 1.2973 5.43702 1.2973 4.77168Z"
            fill="#C62727"
    />
</svg>