<svg width="50" height="52" viewBox="0 0 50 52" fill="none" xmlns="http://www.w3.org/2000/svg">
    <path d="M11.8055 6.73807V1.31464H6.59062V6.73807H1.37578V12.1615H6.59062V17.5841H11.8055V12.1615H17.0203V6.73807H11.8055ZM28.2625 23.5723C31.8602 23.5723 34.7789 20.5343 34.7789 16.7936C34.7789 15.9036 34.6103 15.0224 34.2829 14.2002C33.9554 13.378 33.4754 12.631 32.8702 12.0018C32.2651 11.3725 31.5468 10.8734 30.7562 10.5329C29.9656 10.1924 29.1182 10.0172 28.2625 10.0173C27.4068 10.0172 26.5594 10.1924 25.7688 10.5329C24.9782 10.8734 24.2599 11.3725 23.6548 12.0018C23.0496 12.631 22.5696 13.378 22.2421 14.2002C21.9146 15.0224 21.7461 15.9036 21.7461 16.7936C21.7461 20.5335 24.6648 23.5723 28.2625 23.5723ZM18.0555 51.6116V45.5975L12.2562 47.2761C11.8201 47.4574 11.3548 47.5506 10.8852 47.5508C10.2113 47.5502 9.55023 47.3591 8.97275 46.9979C8.39526 46.6367 7.92308 46.119 7.60672 45.5002C7.29036 44.8814 7.14173 44.1848 7.17674 43.4849C7.21175 42.785 7.42908 42.1082 7.80547 41.5269L17.1078 28.2612C18.118 26.8231 19.5281 25.22 22.5023 25.22H33.7484C36.7211 25.22 38.1328 26.8231 39.1414 28.2612L48.4437 41.5269C48.8198 42.1082 49.0369 42.7848 49.0718 43.4844C49.1067 44.184 48.9582 44.8804 48.6421 45.4991C48.326 46.1177 47.8541 46.6354 47.277 46.9968C46.6999 47.3581 46.0393 47.5496 45.3656 47.5508C44.896 47.5507 44.4306 47.4575 43.9945 47.2761L38.1937 45.5975V51.6116H18.0555ZM28.125 47.4102L35.6398 44.824L35.4703 44.7753C30.2859 43.1884 32.3047 36.0644 37.4883 37.6553L38.1969 37.9031V29.8578L28.125 33.28L18.0539 29.8578V37.9031L18.7586 37.6553C23.9461 36.0644 25.9648 43.1884 20.7773 44.7753L20.6109 44.824L28.125 47.4102Z" fill="#C62727"/>
</svg>
