<svg width="35" height="35" viewBox="0 0 35 35" fill="none" xmlns="http://www.w3.org/2000/svg">
    <path d="M17.5 3.55469C14.7419 3.55469 12.0457 4.37257 9.75241 5.9049C7.45911 7.43723 5.67171 9.61519 4.61622 12.1634C3.56073 14.7115 3.28457 17.5155 3.82265 20.2206C4.36073 22.9257 5.68889 25.4105 7.63918 27.3608C9.58947 29.3111 12.0743 30.6393 14.7794 31.1774C17.4845 31.7154 20.2885 31.4393 22.8366 30.3838C25.3848 29.3283 27.5628 27.5409 29.0951 25.2476C30.6274 22.9543 31.4453 20.2581 31.4453 17.5C31.441 13.8028 29.9703 10.2583 27.356 7.64397C24.7417 5.02966 21.1972 3.55903 17.5 3.55469ZM17.5 29.8047C15.0664 29.8047 12.6874 29.083 10.6639 27.731C8.64039 26.3789 7.06327 24.4572 6.13196 22.2088C5.20064 19.9604 4.95697 17.4864 5.43175 15.0995C5.90653 12.7126 7.07844 10.5201 8.79928 8.79927C10.5201 7.07843 12.7126 5.90652 15.0995 5.43174C17.4864 4.95696 19.9604 5.20064 22.2088 6.13195C24.4572 7.06326 26.3789 8.64039 27.731 10.6639C29.083 12.6874 29.8047 15.0664 29.8047 17.5C29.8011 20.7623 28.5035 23.8899 26.1967 26.1967C23.8899 28.5035 20.7623 29.8011 17.5 29.8047ZM25.9766 17.5C25.9766 17.7176 25.8901 17.9262 25.7363 18.08C25.5825 18.2339 25.3738 18.3203 25.1563 18.3203H17.5C17.2824 18.3203 17.0738 18.2339 16.92 18.08C16.7661 17.9262 16.6797 17.7176 16.6797 17.5V9.84375C16.6797 9.62619 16.7661 9.41754 16.92 9.2637C17.0738 9.10986 17.2824 9.02344 17.5 9.02344C17.7176 9.02344 17.9262 9.10986 18.0801 9.2637C18.2339 9.41754 18.3203 9.62619 18.3203 9.84375V16.6797H25.1563C25.3738 16.6797 25.5825 16.7661 25.7363 16.92C25.8901 17.0738 25.9766 17.2824 25.9766 17.5Z" fill="#C62727"/>
</svg>
