<svg width="54" height="52" viewBox="0 0 54 52" fill="none" xmlns="http://www.w3.org/2000/svg">
    <path opacity="0.5" d="M4.5 20.189C4.5 28.2685 13.545 36.8138 20.1645 41.9857C23.1615 44.33 24.66 45.5 27 45.5C29.34 45.5 30.8385 44.33 33.8355 41.9878C40.4572 36.8117 49.5 28.2685 49.5 20.1868C49.5 6.68851 37.125 1.64884 27 12.077C16.875 1.64884 4.5 6.68851 4.5 20.189Z" fill="#C62727"/>
    <path fill-rule="evenodd" clip-rule="evenodd" d="M37.125 13.5417C37.5726 13.5417 38.0018 13.7129 38.3182 14.0176C38.6347 14.3224 38.8125 14.7357 38.8125 15.1667V17.875H41.625C42.0726 17.875 42.5018 18.0462 42.8182 18.351C43.1347 18.6557 43.3125 19.069 43.3125 19.5C43.3125 19.931 43.1347 20.3443 42.8182 20.6491C42.5018 20.9538 42.0726 21.125 41.625 21.125H38.8125V23.8334C38.8125 24.2643 38.6347 24.6777 38.3182 24.9824C38.0018 25.2871 37.5726 25.4584 37.125 25.4584C36.6774 25.4584 36.2482 25.2871 35.9318 24.9824C35.6153 24.6777 35.4375 24.2643 35.4375 23.8334V21.125H32.625C32.1774 21.125 31.7482 20.9538 31.4318 20.6491C31.1153 20.3443 30.9375 19.931 30.9375 19.5C30.9375 19.069 31.1153 18.6557 31.4318 18.351C31.7482 18.0462 32.1774 17.875 32.625 17.875H35.4375V15.1667C35.4375 14.7357 35.6153 14.3224 35.9318 14.0176C36.2482 13.7129 36.6774 13.5417 37.125 13.5417Z" fill="#C62727"/>
</svg>
