<svg width="331" height="91" viewBox="0 0 331 91" fill="none" xmlns="http://www.w3.org/2000/svg">
    <path d="M160.318 44.44L170.918 44.48V48.92H168.718V53.88H178.278V48.92H176.078V44.44H186.678V48.92H183.438V63.52H186.678V68H176.158V63.52H178.278V58.36H168.718V63.52H170.838V68H160.318V63.52H163.558V48.92H160.318V44.44ZM206.172 65.76C204.945 66.8 203.665 67.56 202.332 68.04C201.025 68.5467 199.732 68.8 198.452 68.8C196.372 68.8 194.558 68.3867 193.012 67.56C191.465 66.7067 190.265 65.5467 189.412 64.08C188.585 62.5867 188.172 60.8933 188.172 59C188.172 57 188.572 55.2533 189.372 53.76C190.172 52.2667 191.278 51.1067 192.692 50.28C194.105 49.4533 195.745 49.04 197.612 49.04C199.558 49.04 201.238 49.4267 202.652 50.2C204.092 50.9733 205.198 52.0533 205.972 53.44C206.772 54.8 207.172 56.4133 207.172 58.28C207.172 58.6267 207.145 59.0267 207.092 59.48C207.065 59.9333 207.012 60.36 206.932 60.76H193.012C193.118 61.6667 193.425 62.4267 193.932 63.04C194.438 63.6533 195.078 64.1067 195.852 64.4C196.652 64.6933 197.518 64.84 198.452 64.84C199.572 64.84 200.652 64.6533 201.692 64.28C202.732 63.9067 203.678 63.3867 204.532 62.72L206.172 65.76ZM202.132 57.4C202.132 56.1467 201.745 55.1333 200.972 54.36C200.198 53.56 199.132 53.16 197.772 53.16C196.545 53.16 195.478 53.56 194.572 54.36C193.665 55.1333 193.185 56.1467 193.132 57.4H202.132ZM222.021 67.32C220.101 68.3067 218.181 68.8 216.261 68.8C213.674 68.8 211.714 68.32 210.381 67.36C209.047 66.3733 208.381 64.9467 208.381 63.08C208.381 59.2667 210.914 57.36 215.981 57.36H220.181C220.181 55.8133 219.847 54.68 219.181 53.96C218.541 53.2133 217.741 52.84 216.781 52.84C216.194 52.84 215.647 52.88 215.141 52.96C214.661 53.04 214.181 53.16 213.701 53.32L213.341 55.2L209.141 54.68L209.901 50.2C210.994 49.8267 212.114 49.5467 213.261 49.36C214.434 49.1467 215.674 49.04 216.981 49.04C219.647 49.04 221.687 49.7467 223.101 51.16C224.541 52.5467 225.261 54.6 225.261 57.32V63.84L228.501 64.88L227.101 69.04L222.021 67.32ZM216.101 60.52C215.274 60.52 214.634 60.7467 214.181 61.2C213.754 61.6267 213.541 62.2267 213.541 63C213.541 64.4133 214.501 65.12 216.421 65.12C217.754 65.12 219.007 64.7733 220.181 64.08V60.52H216.101ZM229.324 68V63.96H232.684V46.2L228.884 44.92L230.204 40.84L237.764 43.4V63.96H241.124V68H229.324ZM252.147 68.8C250.734 68.8 249.52 68.5333 248.507 68C247.494 67.44 246.72 66.6133 246.187 65.52C245.654 64.4 245.387 63 245.387 61.32V53.88H242.067V49.84H245.387V46.6L250.267 45.04V49.84H255.067V53.88H250.267V60.2C250.267 61.64 250.48 62.7467 250.907 63.52C251.36 64.2667 252.027 64.64 252.907 64.64C253.627 64.64 254.494 64.3733 255.507 63.84L256.467 67.6C255.827 67.92 255.134 68.2 254.387 68.44C253.64 68.68 252.894 68.8 252.147 68.8ZM257.189 68V63.96H260.509V46.2L256.709 44.92L258.029 40.84L265.589 43.4V50.48C267.269 49.52 269.255 49.04 271.549 49.04C273.602 49.04 275.189 49.6933 276.309 51C277.455 52.3067 278.029 54.16 278.029 56.56V63.96H281.389V68H271.349V63.96H272.949V57.2C272.949 55.8667 272.682 54.8933 272.149 54.28C271.642 53.64 270.829 53.32 269.709 53.32C269.202 53.32 268.562 53.4133 267.789 53.6C267.042 53.76 266.322 53.9867 265.629 54.28V63.96H267.229V68H257.189Z" fill="#C62727"/>
    <path d="M49.599 8.832C49.599 8.78933 49.279 8.704 48.639 8.576C47.999 8.40533 47.2097 8.23466 46.271 8.064C45.3323 7.89333 44.3937 7.808 43.455 7.808C39.871 7.808 37.119 8.93867 35.199 11.2C33.279 13.4613 32.319 16.7467 32.319 21.056C32.319 25.408 33.3003 28.736 35.263 31.04C37.2257 33.344 39.9563 34.496 43.455 34.496C44.5217 34.496 45.5243 34.368 46.463 34.112C47.4017 33.8133 48.1483 33.536 48.703 33.28C49.3003 33.024 49.599 32.896 49.599 32.896L51.007 27.136L57.919 28.736L55.871 38.4C55.871 38.4 55.3377 38.656 54.271 39.168C53.247 39.6373 51.7963 40.128 49.919 40.64C48.0417 41.152 45.887 41.408 43.455 41.408C39.5723 41.408 36.1377 40.704 33.151 39.296C30.207 37.8453 27.903 35.6267 26.239 32.64C24.575 29.6107 23.743 25.7493 23.743 21.056C23.743 16.7893 24.5537 13.1627 26.175 10.176C27.7963 7.18933 30.079 4.90667 33.023 3.328C36.0097 1.70667 39.4657 0.896 43.391 0.896C46.0363 0.896 48.2977 1.17333 50.175 1.728C52.095 2.28266 53.5457 2.85866 54.527 3.456C55.551 4.01066 56.063 4.288 56.063 4.288L57.983 13.888L51.007 15.424L49.599 8.832ZM94.2215 40V33.536H99.6615V19.008L93.5175 16.896L95.6295 10.368L104.653 13.44C106.36 12.288 108.067 11.3707 109.773 10.688C111.48 10.0053 113.656 9.664 116.301 9.664C119.117 9.664 121.336 10.2187 122.957 11.328C124.579 12.4373 125.731 13.9307 126.413 15.808C127.139 17.6853 127.501 19.7547 127.501 22.016V33.536H132.813V40H116.813V33.536H119.437V22.976C119.437 21.184 119.075 19.712 118.349 18.56C117.624 17.408 116.259 16.832 114.253 16.832C112.973 16.832 111.736 17.0667 110.541 17.536C109.389 17.9627 108.451 18.4533 107.725 19.008V33.536H110.285V40H94.2215ZM135.489 40V33.536H140.929V19.008L134.785 16.896L136.897 10.368L145.921 13.44C147.628 12.288 149.334 11.3707 151.041 10.688C152.748 10.0053 154.924 9.664 157.569 9.664C160.385 9.664 162.604 10.2187 164.225 11.328C165.846 12.4373 166.998 13.9307 167.681 15.808C168.406 17.6853 168.769 19.7547 168.769 22.016V33.536H174.081V40H158.081V33.536H160.705V22.976C160.705 21.184 160.342 19.712 159.617 18.56C158.892 17.408 157.526 16.832 155.521 16.832C154.241 16.832 153.004 17.0667 151.809 17.536C150.657 17.9627 149.718 18.4533 148.993 19.008V33.536H151.553V40H135.489ZM203.539 36.416C201.576 38.08 199.528 39.296 197.395 40.064C195.304 40.8747 193.235 41.28 191.187 41.28C187.859 41.28 184.957 40.6187 182.483 39.296C180.008 37.9307 178.088 36.0747 176.723 33.728C175.4 31.3387 174.739 28.6293 174.739 25.6C174.739 22.4 175.379 19.6053 176.659 17.216C177.939 14.8267 179.709 12.9707 181.97 11.648C184.232 10.3253 186.856 9.664 189.843 9.664C192.957 9.664 195.645 10.2827 197.907 11.52C200.211 12.7573 201.981 14.4853 203.219 16.704C204.499 18.88 205.139 21.4613 205.139 24.448C205.139 25.0027 205.096 25.6427 205.011 26.368C204.968 27.0933 204.883 27.776 204.755 28.416H182.483C182.653 29.8667 183.144 31.0827 183.955 32.064C184.765 33.0453 185.789 33.7707 187.027 34.24C188.307 34.7093 189.693 34.944 191.187 34.944C192.979 34.944 194.707 34.6453 196.371 34.048C198.035 33.4507 199.549 32.6187 200.915 31.552L203.539 36.416ZM197.075 23.04C197.075 21.0347 196.456 19.4133 195.219 18.176C193.981 16.896 192.275 16.256 190.099 16.256C188.136 16.256 186.429 16.896 184.979 18.176C183.528 19.4133 182.76 21.0347 182.675 23.04H197.075ZM226.913 16.384C226.23 16.1707 225.569 16.0213 224.929 15.936C224.289 15.8507 223.692 15.808 223.137 15.808C220.62 15.808 218.7 16.6613 217.377 18.368C216.097 20.032 215.457 22.5067 215.457 25.792C215.457 28.5653 216.161 30.7627 217.569 32.384C218.977 34.0053 220.726 34.816 222.817 34.816C224.268 34.816 225.761 34.5387 227.297 33.984C228.833 33.3867 230.348 32.5547 231.841 31.488L235.105 36.288C233.782 37.312 232.481 38.208 231.201 38.976C229.921 39.7013 228.598 40.256 227.233 40.64C225.91 41.0667 224.417 41.28 222.753 41.28C219.553 41.28 216.78 40.704 214.433 39.552C212.129 38.3573 210.337 36.608 209.057 34.304C207.82 32 207.201 29.1627 207.201 25.792C207.201 22.2507 207.798 19.2853 208.993 16.896C210.188 14.464 211.958 12.6507 214.305 11.456C216.652 10.2187 219.553 9.6 223.009 9.6C224.673 9.6 226.337 9.77067 228.001 10.112C229.708 10.4107 231.35 10.8587 232.929 11.456L234.721 20.224L227.873 21.696L226.913 16.384ZM253.206 41.28C250.945 41.28 249.004 40.8533 247.382 40C245.761 39.104 244.524 37.7813 243.67 36.032C242.817 34.24 242.39 32 242.39 29.312V17.408H237.078V10.944H242.39V5.76L250.198 3.264V10.944H257.878V17.408H250.198V27.52C250.198 29.824 250.54 31.5947 251.222 32.832C251.948 34.0267 253.014 34.624 254.422 34.624C255.574 34.624 256.961 34.1973 258.582 33.344L260.118 39.36C259.094 39.872 257.985 40.32 256.79 40.704C255.596 41.088 254.401 41.28 253.206 41.28Z" fill="#C62727"/>
    <path d="M63.2545 13.9171L63.2545 13.9171C64.5069 12.3233 66.1814 11.3853 68.0403 11.3853C70.6027 11.3853 72.6561 13.0419 74.0354 15.851C74.5727 16.9455 76.1328 16.9455 76.6701 15.851C78.0493 13.0421 80.1027 11.3853 82.6652 11.3853C84.5243 11.3853 86.1988 12.3234 87.4512 13.9174C88.7109 15.5206 89.485 17.7288 89.485 20.0433C89.485 24.9976 86.016 29.4323 82.1876 32.7738L82.1876 32.7738C80.3095 34.4132 78.4244 35.7196 77.0057 36.617C76.3159 37.0533 75.74 37.3907 75.3338 37.6204C75.2983 37.6013 75.2616 37.5815 75.2236 37.5609L75.2235 37.5608C74.7223 37.2889 74.0055 36.8823 73.1569 36.35C71.4546 35.2821 69.2478 33.7248 67.1917 31.7549C66.0974 30.7063 65.0553 29.55 64.157 28.2984C63.6844 27.6399 62.7674 27.4892 62.1089 27.9618C61.4504 28.4344 61.2997 29.3513 61.7723 30.0098L62.2191 29.6892L61.7723 30.0099C62.7957 31.4358 63.9636 32.727 65.1611 33.8743C67.4049 36.0243 69.7863 37.7006 71.5971 38.8366L71.8894 38.3707L71.5971 38.8366C72.5052 39.4062 73.2763 39.8438 73.8238 40.1409L73.8238 40.1409C73.9752 40.223 74.1096 40.2944 74.2252 40.355L74.2201 40.3657L74.7073 40.6002L74.7095 40.6012L74.715 40.6039L74.7159 40.6043L74.7484 40.6201L74.753 40.6216C75.1544 40.8012 75.6158 40.7913 76.0096 40.5945L76.0185 40.5904L76.0318 40.5832L76.5125 40.3368L76.5075 40.3271C76.5792 40.2874 76.6582 40.2434 76.744 40.195L76.4738 39.7159L76.744 40.195C77.1893 39.9439 77.8202 39.575 78.5748 39.0976C80.0811 38.1448 82.0959 36.75 84.1178 34.9853L83.7561 34.5709L84.1178 34.9853C88.0891 31.5189 92.4202 26.3342 92.4202 20.0433C92.4202 17.1049 91.4457 14.2503 89.7592 12.1038L89.3267 12.4436L89.7592 12.1038C88.0659 9.94872 85.5968 8.45 82.6652 8.45C80.4158 8.45 78.5169 9.27829 76.9898 10.6008C76.1026 11.3692 74.6029 11.3692 73.7157 10.6008C72.1885 9.27826 70.2897 8.45 68.0403 8.45C65.109 8.45 62.64 9.94845 60.9465 12.1035C59.26 14.2498 58.2853 17.1044 58.2853 20.0433C58.2853 21.008 58.3802 21.945 58.555 22.8519C58.6272 23.2266 58.348 23.54 58.0376 23.54H57.9176C57.1071 23.54 56.45 24.1971 56.45 25.0076C56.45 25.8182 57.1071 26.4753 57.9176 26.4753H69.7917C70.356 26.4753 70.8764 26.1709 71.1531 25.6791C71.3544 25.3213 71.8874 25.384 72.0002 25.7787L72.2821 26.7656C72.7297 28.3321 74.7669 28.7268 75.7671 27.4408L77.4705 25.2508C77.7452 24.8976 78.1676 24.691 78.615 24.691H81.7762C82.5868 24.691 83.2439 24.0339 83.2439 23.2234C83.2439 22.4128 82.5868 21.7557 81.7762 21.7557H77.5093C76.8537 21.7557 76.2348 22.0584 75.8323 22.5759C75.3175 23.2378 74.269 23.0347 74.0386 22.2284L73.5098 22.3795L74.0386 22.2284L74.0142 22.1431C73.4848 20.29 70.9822 19.9958 70.0374 21.6756L69.4044 22.8009C69.1476 23.2575 68.6644 23.54 68.1406 23.54H62.7833C62.1434 23.54 61.6163 23.137 61.4959 22.5826C61.3171 21.7599 61.2206 20.9133 61.2206 20.0433C61.2206 17.7284 61.9947 15.5202 63.2545 13.9171Z" fill="#C62727" stroke="#C62727" stroke-width="1.1"/>
</svg>
