<svg width="34" height="34" viewBox="0 0 34 34" fill="none" xmlns="http://www.w3.org/2000/svg">
    <path d="M0 4.25C0 3.07461 0.949609 2.125 2.125 2.125H31.875C33.0504 2.125 34 3.07461 34 4.25C34 5.42539 33.0504 6.375 31.875 6.375V27.625C33.0504 27.625 34 28.5746 34 29.75C34 30.9254 33.0504 31.875 31.875 31.875H2.125C0.949609 31.875 0 30.9254 0 29.75C0 28.5746 0.949609 27.625 2.125 27.625V6.375C0.949609 6.375 0 5.42539 0 4.25ZM17 6.375C16.4156 6.375 15.9375 6.85313 15.9375 7.4375V9.5625H10.625C10.0406 9.5625 9.5625 10.0406 9.5625 10.625C9.5625 11.2094 10.0406 11.6875 10.625 11.6875H15.9375V14.875H8.5C7.91563 14.875 7.4375 15.3531 7.4375 15.9375C7.4375 16.5219 7.91563 17 8.5 17H15.9375V21.6883L12.5574 20.3867C12.2121 20.2539 11.8535 20.1875 11.4816 20.1875H11.3422C9.775 20.1875 8.5 21.4625 8.5 23.0297C8.5 23.6672 8.7125 24.2848 9.1043 24.7828L10.3129 26.3234C10.957 27.1469 11.9465 27.625 12.9891 27.625H21.0109C22.0535 27.625 23.043 27.1469 23.6871 26.3234L24.8957 24.7828C25.2875 24.2848 25.5 23.6672 25.5 23.0297C25.5 21.4625 24.225 20.1875 22.6578 20.1875H22.5117C22.1465 20.1875 21.7812 20.2539 21.4359 20.3867L18.0625 21.6883V17H25.5C26.0844 17 26.5625 16.5219 26.5625 15.9375C26.5625 15.3531 26.0844 14.875 25.5 14.875H18.0625V11.6875H23.375C23.9594 11.6875 24.4375 11.2094 24.4375 10.625C24.4375 10.0406 23.9594 9.5625 23.375 9.5625H18.0625V7.4375C18.0625 6.85313 17.5844 6.375 17 6.375ZM13.8125 23.375C14.0943 23.375 14.3645 23.4869 14.5638 23.6862C14.7631 23.8855 14.875 24.1557 14.875 24.4375C14.875 24.7193 14.7631 24.9895 14.5638 25.1888C14.3645 25.3881 14.0943 25.5 13.8125 25.5C13.5307 25.5 13.2605 25.3881 13.0612 25.1888C12.8619 24.9895 12.75 24.7193 12.75 24.4375C12.75 24.1557 12.8619 23.8855 13.0612 23.6862C13.2605 23.4869 13.5307 23.375 13.8125 23.375ZM19.125 24.4375C19.125 24.1557 19.2369 23.8855 19.4362 23.6862C19.6355 23.4869 19.9057 23.375 20.1875 23.375C20.4693 23.375 20.7395 23.4869 20.9388 23.6862C21.1381 23.8855 21.25 24.1557 21.25 24.4375C21.25 24.7193 21.1381 24.9895 20.9388 25.1888C20.7395 25.3881 20.4693 25.5 20.1875 25.5C19.9057 25.5 19.6355 25.3881 19.4362 25.1888C19.2369 24.9895 19.125 24.7193 19.125 24.4375Z" fill="#C62727"/>
</svg>
