<svg width="42" height="42" viewBox="0 0 42 42" fill="none" xmlns="http://www.w3.org/2000/svg">
    <path d="M14.9905 27.0007C15.6555 27.6669 16.4465 28.0018 17.3635 28.0053C18.2805 28.0088 19.0721 27.6774 19.7383 27.0113L22.7605 23.989L18.011 19.2395L14.9905 22.2617C14.3453 22.9058 14.0227 23.6956 14.0227 24.6313C14.0227 25.5669 14.3453 26.3568 14.9905 27.0007ZM27.006 15.0045C26.3433 14.364 25.5535 14.035 24.6365 14.0175C23.7195 13.9988 22.9279 14.3232 22.2617 14.9905L19.25 18.0005L23.9995 22.75L27.0095 19.7383C27.6768 19.0616 28.0035 18.2694 27.9895 17.3617C27.9755 16.4541 27.6477 15.6683 27.006 15.0045ZM9.828 35C9.04983 35 8.38425 34.7229 7.83125 34.1687C7.27825 33.6146 7.00117 32.9502 7 32.1755V9.82625C7 9.04925 7.27708 8.38425 7.83125 7.83125C8.38542 7.27825 9.05042 7.00117 9.82625 7H18.0512C17.8926 6.10633 18.1067 5.29958 18.6935 4.57975C19.2792 3.85992 20.0538 3.5 21.0175 3.5C21.9812 3.5 22.7558 3.85992 23.3415 4.57975C23.9272 5.29958 24.1296 6.10633 23.9488 7H32.1737C32.9508 7 33.6157 7.27708 34.1687 7.83125C34.7218 8.38542 34.9988 9.05042 35 9.82625V32.1737C35 32.9508 34.7229 33.6157 34.1687 34.1687C33.6146 34.7218 32.9496 34.9988 32.1737 35H9.828ZM21 7.7735C21.3792 7.7735 21.693 7.64983 21.9415 7.4025C22.19 7.15517 22.3137 6.84133 22.3125 6.461C22.3113 6.08067 22.1871 5.76742 21.9397 5.52125C21.6924 5.27508 21.3792 5.15083 21 5.1485C20.6208 5.14617 20.3076 5.27042 20.0603 5.52125C19.8129 5.77208 19.6887 6.08533 19.6875 6.461C19.6863 6.83667 19.8106 7.1505 20.0603 7.4025C20.3099 7.6545 20.6232 7.77817 21 7.7735Z" fill="#C62727"/>
</svg>
