<svg width="42" height="43" viewBox="0 0 42 43" fill="none" xmlns="http://www.w3.org/2000/svg">
    <path d="M41.28 14.08C41.28 13.596 40.893 13.2 40.42 13.2H29.24C28.767 13.2 28.38 12.804 28.38 12.32V0.88C28.38 0.396 27.993 0 27.52 0H13.76C13.287 0 12.9 0.396 12.9 0.88V12.32C12.9 12.804 12.513 13.2 12.04 13.2H0.86C0.387 13.2 0 13.596 0 14.08V28.16C0 28.644 0.387 29.04 0.86 29.04H12.04C12.513 29.04 12.9 29.436 12.9 29.92V41.36C12.9 41.844 13.287 42.24 13.76 42.24H27.52C27.993 42.24 28.38 41.844 28.38 41.36V29.92C28.38 29.436 28.767 29.04 29.24 29.04H40.42C40.893 29.04 41.28 28.644 41.28 28.16V14.08Z" fill="#C62727"/>
</svg>
