<svg width="49" height="50" viewBox="0 0 49 50" fill="none" xmlns="http://www.w3.org/2000/svg">
    <path fill-rule="evenodd" clip-rule="evenodd" d="M29.0937 8.85419C29.0937 10.0974 28.6098 11.2897 27.7483 12.1687C26.8868 13.0478 25.7183 13.5417 24.5 13.5417C23.2817 13.5417 22.1132 13.0478 21.2517 12.1687C20.3902 11.2897 19.9062 10.0974 19.9062 8.85419C19.9062 7.61098 20.3902 6.4187 21.2517 5.53962C22.1132 4.66055 23.2817 4.16669 24.5 4.16669C25.7183 4.16669 26.8868 4.66055 27.7483 5.53962C28.6098 6.4187 29.0937 7.61098 29.0937 8.85419ZM30.625 35.4167H25.7914L26.5498 43.9386C26.5968 44.473 26.8441 44.9684 27.2401 45.3214C27.6362 45.6744 28.1505 45.8579 28.6758 45.8336C29.2011 45.8093 29.697 45.5791 30.0602 45.1909C30.4233 44.8028 30.6256 44.2866 30.625 43.75V35.4167ZM23.2086 35.4167H18.375V43.75C18.3744 44.2866 18.5767 44.8028 18.9398 45.1909C19.303 45.5791 19.7988 45.8093 20.3242 45.8336C20.8495 45.8579 21.3638 45.6744 21.7599 45.3214C22.1559 44.9684 22.4032 44.473 22.4502 43.9386L23.2086 35.4167ZM11.2292 15.625C10.9584 15.625 10.6988 15.7348 10.5073 15.9301C10.3159 16.1255 10.2083 16.3904 10.2083 16.6667V32.2917C10.2083 32.568 10.3159 32.8329 10.5073 33.0283C10.6988 33.2236 10.9584 33.3334 11.2292 33.3334H37.7708C38.0416 33.3334 38.3012 33.2236 38.4927 33.0283C38.6841 32.8329 38.7917 32.568 38.7917 32.2917V16.6667C38.7917 16.3904 38.6841 16.1255 38.4927 15.9301C38.3012 15.7348 38.0416 15.625 37.7708 15.625H11.2292ZM23.4792 17.7084V19.2709H22.9687C22.0194 19.2709 20.9883 19.5834 20.2595 19.8542C19.8215 20.0167 19.3915 20.2009 18.9712 20.4063L18.9497 20.4167L18.9426 20.4209H18.9405L19.3958 21.3542L19.8521 22.2865L19.8542 22.2854L19.8664 22.2792L19.9246 22.25C19.977 22.2236 20.0532 22.1882 20.1533 22.1438C20.3524 22.0531 20.6331 21.9323 20.9567 21.8125C21.6325 21.5625 22.3879 21.3542 22.9687 21.3542H23.4792V23.4375H22.6625C21.4406 23.4375 20.1584 24.1 19.3009 24.6302C18.7654 24.9647 18.2506 25.3324 17.7594 25.7313L17.7329 25.7521L17.7257 25.7584L17.7227 25.7604V25.7615L18.375 26.5625L19.0283 27.3625L19.0314 27.3604L19.0467 27.3479L19.1171 27.2896C19.5142 26.9731 19.9287 26.6799 20.3585 26.4115C21.1854 25.9011 22.0469 25.5209 22.6625 25.5209H23.4792V27.7792C22.7763 27.9873 22.1135 28.3164 21.5192 28.7521C21.1108 29.05 20.7321 29.4042 20.4452 29.7927C20.1706 30.1636 19.9062 30.6688 19.9062 31.25H21.9479V31.2709V31.2677C21.9789 31.1875 22.022 31.1126 22.0755 31.0459C22.2082 30.8656 22.4226 30.6531 22.7084 30.4448C23.2801 30.0261 23.9773 29.7365 24.5327 29.6875C25.0043 29.7 25.6719 29.9636 26.2599 30.4C26.5488 30.6136 26.7724 30.8375 26.9132 31.0292C26.9706 31.1016 27.017 31.1824 27.0511 31.2688V31.2709L27.0531 31.2729L27.0521 31.25H29.0937C29.0937 30.6646 28.8202 30.1511 28.5466 29.7781C28.2383 29.3712 27.8726 29.0132 27.4614 28.7156C26.877 28.2764 26.2196 27.9485 25.5208 27.7479V25.5209H26.6437C27.4084 25.5209 28.1944 25.9021 28.8518 26.374C29.2132 26.6336 29.5501 26.9269 29.8584 27.25L29.8665 27.2604L30.625 26.5625L31.3835 25.8646L31.3814 25.8636L31.3794 25.8604L31.3722 25.8521L31.3498 25.8281L31.2732 25.7459C30.8893 25.3493 30.4715 24.9885 30.0247 24.6677C29.2285 24.0979 28.0239 23.4375 26.6437 23.4375H25.5208V21.3542H26.2865C26.9949 21.3542 27.685 21.5636 28.2189 21.7938C28.5011 21.9144 28.7741 22.0565 29.0356 22.2188L29.0386 22.2209L29.6042 21.3542L30.1697 20.4875L30.1687 20.4865L30.1656 20.4844L30.1585 20.4792L30.1381 20.4656L30.0697 20.4219C29.7303 20.2129 29.3765 20.0295 29.0111 19.8729C28.3342 19.5813 27.3645 19.2709 26.2865 19.2709H25.5208V17.7084H23.4792Z" fill="#C62727"/>
</svg>
