<svg width="45" height="45" viewBox="0 0 45 45" fill="none" xmlns="http://www.w3.org/2000/svg">
    <path d="M20.625 31.875H24.375V20.625H20.625V31.875ZM22.5 16.875C23.0313 16.875 23.4769 16.695 23.8369 16.335C24.1969 15.975 24.3763 15.53 24.375 15C24.3738 14.47 24.1938 14.025 23.835 13.665C23.4763 13.305 23.0313 13.125 22.5 13.125C21.9688 13.125 21.5238 13.305 21.165 13.665C20.8063 14.025 20.6263 14.47 20.625 15C20.6238 15.53 20.8038 15.9756 21.165 16.3369C21.5263 16.6981 21.9713 16.8775 22.5 16.875ZM22.5 41.25C19.9063 41.25 17.4688 40.7575 15.1875 39.7725C12.9063 38.7875 10.9219 37.4519 9.23438 35.7656C7.54688 34.0794 6.21125 32.095 5.2275 29.8125C4.24375 27.53 3.75125 25.0925 3.75 22.5C3.74875 19.9075 4.24125 17.47 5.2275 15.1875C6.21375 12.905 7.54938 10.9206 9.23438 9.23438C10.9194 7.54813 12.9038 6.2125 15.1875 5.2275C17.4713 4.2425 19.9088 3.75 22.5 3.75C25.0913 3.75 27.5288 4.2425 29.8125 5.2275C32.0963 6.2125 34.0806 7.54813 35.7656 9.23438C37.4506 10.9206 38.7869 12.905 39.7744 15.1875C40.7619 17.47 41.2538 19.9075 41.25 22.5C41.2463 25.0925 40.7538 27.53 39.7725 29.8125C38.7913 32.095 37.4556 34.0794 35.7656 35.7656C34.0756 37.4519 32.0913 38.7881 29.8125 39.7744C27.5338 40.7606 25.0963 41.2525 22.5 41.25Z" fill="#C62727"/>
</svg>
