<svg width="37" height="37" viewBox="0 0 37 37" fill="none" xmlns="http://www.w3.org/2000/svg">
    <path d="M7.70833 26.2083H10.7917M10.7917 26.2083H26.2083M10.7917 26.2083V16.9583C10.7917 14.914 11.6038 12.9533 13.0494 11.5077C14.495 10.0621 16.4556 9.25001 18.5 9.25001C20.5444 9.25001 22.505 10.0621 23.9506 11.5077C25.3962 12.9533 26.2083 14.914 26.2083 16.9583V26.2083M26.2083 26.2083H29.2917M17.7292 8.47918V6.16668C17.7292 5.96224 17.8104 5.76617 17.9549 5.62162C18.0995 5.47706 18.2956 5.39584 18.5 5.39584C18.7044 5.39584 18.9005 5.47706 19.0451 5.62162C19.1896 5.76617 19.2708 5.96224 19.2708 6.16668V8.47918M20.0417 30.8333C20.0417 31.2422 19.8792 31.6343 19.5901 31.9235C19.301 32.2126 18.9089 32.375 18.5 32.375C18.0911 32.375 17.699 32.2126 17.4099 31.9235C17.1208 31.6343 16.9583 31.2422 16.9583 30.8333H20.0417Z" stroke="#BE3737" stroke-width="3.08333" stroke-linecap="round" stroke-linejoin="round"/>
</svg>
