<svg width="40" height="32" viewBox="0 0 40 32" fill="none" xmlns="http://www.w3.org/2000/svg">
    <path d="M5.57786 31.9629H34.4214C37.9036 31.9629 39.6786 30.2215 39.6786 26.7729V9.24503C39.6786 5.79646 37.9036 4.07217 34.4214 4.07217H30.5043C29.1986 4.07217 28.7972 3.80431 28.0436 2.96717L26.6871 1.46003C25.8671 0.540028 25.0136 0.0371704 23.2722 0.0371704H16.6093C14.885 0.0371704 14.0307 0.540028 13.1943 1.46003L11.8379 2.96717C11.1014 3.78717 10.6829 4.07217 9.37715 4.07217H5.57715C2.09501 4.07217 0.320007 5.79646 0.320007 9.24503V26.7729C0.320007 30.2215 2.09572 31.9629 5.57786 31.9629ZM19.9914 26.6057C14.935 26.6057 10.8672 22.5372 10.8672 17.4486C10.8672 12.3586 14.935 8.29146 19.9907 8.29146C25.08 8.29146 29.1314 12.3586 29.1314 17.4486C29.1314 22.5372 25.0636 26.6057 19.9907 26.6057M32.0272 13.3629C30.8886 13.3629 29.9514 12.4429 29.9514 11.3043C29.9514 10.7538 30.1701 10.2258 30.5594 9.83656C30.9487 9.44729 31.4766 9.2286 32.0272 9.2286C32.5777 9.2286 33.1056 9.44729 33.4949 9.83656C33.8842 10.2258 34.1029 10.7538 34.1029 11.3043C34.1029 12.4429 33.1657 13.3629 32.0272 13.3629ZM19.9914 24.0615C20.8601 24.0625 21.7205 23.8921 22.5233 23.5602C23.3261 23.2282 24.0555 22.7412 24.6697 22.1269C25.284 21.5126 25.7711 20.7832 26.103 19.9805C26.435 19.1777 26.6053 18.3173 26.6043 17.4486C26.6052 16.58 26.4348 15.7197 26.1028 14.917C25.7708 14.1143 25.2837 13.3849 24.6695 12.7708C24.0552 12.1566 23.3259 11.6696 22.5231 11.3377C21.7204 11.0057 20.8601 10.8354 19.9914 10.8365C16.3414 10.8365 13.3957 13.7829 13.3957 17.4486C13.3957 21.115 16.3586 24.0615 19.9914 24.0615Z" fill="#253B6E"/>
</svg>
