<svg width="36" height="37" viewBox="0 0 36 37" fill="none" xmlns="http://www.w3.org/2000/svg">
    <path d="M27 2.3125H9C8.40326 2.3125 7.83097 2.55614 7.40901 2.98982C6.98705 3.42349 6.75 4.01169 6.75 4.625V9.25C6.75 9.86331 6.98705 10.4515 7.40901 10.8852C7.83097 11.3189 8.40326 11.5625 9 11.5625V32.375C9 32.9883 9.23705 33.5765 9.65901 34.0102C10.081 34.4439 10.6533 34.6875 11.25 34.6875H24.75C25.3467 34.6875 25.919 34.4439 26.341 34.0102C26.7629 33.5765 27 32.9883 27 32.375V11.5625C27.5967 11.5625 28.169 11.3189 28.591 10.8852C29.0129 10.4515 29.25 9.86331 29.25 9.25V4.625C29.25 4.01169 29.0129 3.42349 28.591 2.98982C28.169 2.55614 27.5967 2.3125 27 2.3125ZM11.25 16.1875H14.625V27.75H11.25V16.1875ZM24.75 32.375H11.25V30.0625H16.875V13.875H11.25V11.5625H24.75V32.375ZM9 9.25V4.625H27V9.25H9Z" fill="#C62727"/>
</svg>
