<svg width="48" height="44" viewBox="0 0 48 44" fill="none" xmlns="http://www.w3.org/2000/svg">
    <path d="M9.07344 7.34716L9.07345 7.34715C10.7596 5.20138 13.0296 3.92105 15.5641 3.92105C19.0612 3.92105 21.8335 6.18743 23.6751 9.93832L24.7617 12.1515L25.2105 13.0657L25.6594 12.1515L26.7459 9.93833C28.5874 6.18766 31.3598 3.92105 34.857 3.92105C37.3917 3.92105 39.6617 5.2016 41.3478 7.34751C43.0424 9.50416 44.0789 12.4668 44.0789 15.5681C44.0789 22.2063 39.4365 28.1141 34.3752 32.5318L34.6907 32.8933L34.3752 32.5318C31.8866 34.704 29.3898 36.4342 27.5116 37.6223C26.5742 38.2153 25.7954 38.6704 25.2546 38.9753L25.2545 38.9754C25.232 38.9881 25.2099 39.0005 25.1883 39.0127C25.1086 38.9702 25.0232 38.9243 24.9325 38.8751L24.9324 38.875C24.2678 38.5144 23.318 37.9756 22.194 37.2705C19.94 35.8566 17.0154 33.7931 14.2886 31.1805C12.8371 29.7898 11.4527 28.254 10.2581 26.5895C9.70728 25.822 8.63855 25.6463 7.87106 26.1971C7.10355 26.748 6.92794 27.8167 7.47877 28.5842L7.88498 28.2926L7.47877 28.5842C8.8192 30.4518 10.3502 32.1448 11.9219 33.6507C14.8675 36.4731 17.9956 38.6754 20.3761 40.1686C21.5694 40.9172 22.5824 41.4921 23.3011 41.8821L23.3011 41.8821C23.5913 42.0395 23.8338 42.1669 24.0213 42.2636L24.0175 42.2715L24.4581 42.4836L24.46 42.4845L24.4673 42.488L24.4682 42.4885L24.4956 42.5017L24.4961 42.5019L25.0105 42.7495L25.2343 42.8572L25.4554 42.7439L25.9811 42.4745L25.9883 42.4712L26.0008 42.4644L26.0026 42.4635L26.0041 42.4626L26.0106 42.4593L26.4367 42.241L26.433 42.2338C26.5712 42.1585 26.7395 42.0655 26.935 41.9552C27.5196 41.6256 28.3485 41.141 29.3404 40.5135C31.3207 39.2608 33.9687 37.4276 36.6248 35.1092L36.296 34.7325L36.6248 35.1092C41.8528 30.546 47.5 23.7641 47.5 15.5681C47.5 11.7397 46.2298 8.02365 44.0378 5.23383L43.6447 5.54274L44.0378 5.23383C41.8378 2.4339 38.6417 0.5 34.857 0.5C30.6696 0.5 27.4459 2.71232 25.2105 5.84259C22.975 2.71219 19.7513 0.5 15.5641 0.5C11.7797 0.5 8.58363 2.43356 6.38351 5.23345C4.19142 8.02304 2.92105 11.7391 2.92105 15.5681C2.92105 17.2478 3.14187 18.8629 3.53624 20.4064H1H0.5V20.9064V23.3274V23.8274H1H18.6553H18.9477L19.0911 23.5726L20.455 21.1479L22.4052 27.9738L22.6758 28.921L23.2806 28.1434L28.4682 21.4737H34.8947H35.3947V20.9737V18.5526V18.0526H34.8947H27.0395H26.795L26.6448 18.2457L24.1136 21.5001L21.8215 13.4778L21.4923 12.3257L20.9049 13.37L16.947 20.4064H7.09033C6.61081 18.8605 6.34211 17.2469 6.34211 15.5681C6.34211 12.4664 7.3788 9.50369 9.07344 7.34716Z" fill="white" stroke="white"/>
</svg>
