<svg width="40" height="40" viewBox="0 0 40 40" fill="none" xmlns="http://www.w3.org/2000/svg">
    <path d="M9.73143 16.8925C6.06231 17.7651 3.33334 21.0639 3.33334 25C3.33334 29.6024 7.0643 33.3334 11.6667 33.3334C12.4562 33.3334 13.22 33.2236 13.9438 33.0184" stroke="#253B6E" stroke-width="4" stroke-linecap="round" stroke-linejoin="round"/>
    <path d="M30.0456 16.8925C33.7148 17.7651 36.4437 21.0639 36.4437 25C36.4437 29.6024 32.7128 33.3334 28.1103 33.3334C27.3208 33.3334 26.557 33.2236 25.8333 33.0184" stroke="#253B6E" stroke-width="4" stroke-linecap="round" stroke-linejoin="round"/>
    <path d="M30 16.6667C30 11.1439 25.5228 6.66669 20 6.66669C14.4772 6.66669 10 11.1439 10 16.6667" stroke="#253B6E" stroke-width="4" stroke-linecap="round" stroke-linejoin="round"/>
    <path d="M14.2212 23.2344L19.9999 17.4365L25.9432 23.3335" stroke="#253B6E" stroke-width="4" stroke-linecap="round" stroke-linejoin="round"/>
    <path d="M20 31.6668V20.3849" stroke="#253B6E" stroke-width="4" stroke-linecap="round" stroke-linejoin="round"/>
</svg>
