<svg width="50" height="53" viewBox="0 0 50 53" fill="none" xmlns="http://www.w3.org/2000/svg">
    <path d="M12.5 37.5417H10.4167C9.27083 37.5417 8.29027 37.1096 7.475 36.2454C6.65972 35.3812 6.25139 34.3411 6.25 33.125V16.5625C5.65972 16.5625 5.16527 16.3505 4.76666 15.9265C4.36805 15.5025 4.16805 14.9784 4.16666 14.3542C4.16527 13.73 4.36528 13.2059 4.76666 12.7819C5.16805 12.3579 5.6625 12.1459 6.25 12.1459H12.5V8.83335H11.4583C10.8681 8.83335 10.3736 8.62135 9.975 8.19735C9.57639 7.77335 9.37639 7.24924 9.375 6.62502C9.37361 6.0008 9.57361 5.47669 9.975 5.05269C10.3764 4.62869 10.8708 4.41669 11.4583 4.41669H17.7083C18.2986 4.41669 18.7937 4.62869 19.1937 5.05269C19.5937 5.47669 19.7931 6.0008 19.7917 6.62502C19.7903 7.24924 19.5903 7.77409 19.1917 8.19956C18.7931 8.62503 18.2986 8.8363 17.7083 8.83335H16.6667V12.1459H22.9167C23.5069 12.1459 24.0021 12.3579 24.4021 12.7819C24.8021 13.2059 25.0014 13.73 25 14.3542C24.9986 14.9784 24.7986 15.5033 24.4 15.9287C24.0014 16.3542 23.5069 16.5655 22.9167 16.5625V33.125C22.9167 34.3396 22.509 35.3797 21.6937 36.2454C20.8785 37.1111 19.8972 37.5432 18.75 37.5417H16.6667V47.4792C16.6667 48.1049 16.4667 48.6297 16.0667 49.0537C15.6667 49.4777 15.1722 49.689 14.5833 49.6875C13.9944 49.6861 13.5 49.4741 13.1 49.0515C12.7 48.629 12.5 48.1049 12.5 47.4792V37.5417ZM10.4167 33.125H18.75V29.8125H15.1042C14.6875 29.8125 14.3229 29.6469 14.0104 29.3156C13.6979 28.9844 13.5417 28.5979 13.5417 28.1563C13.5417 27.7146 13.6979 27.3281 14.0104 26.9969C14.3229 26.6656 14.6875 26.5 15.1042 26.5H18.75V23.1875H15.1042C14.6875 23.1875 14.3229 23.0219 14.0104 22.6906C13.6979 22.3594 13.5417 21.9729 13.5417 21.5313C13.5417 21.0896 13.6979 20.7031 14.0104 20.3719C14.3229 20.0406 14.6875 19.875 15.1042 19.875H18.75V16.5625H10.4167V33.125ZM31.25 48.5834C30.1042 48.5834 29.1236 48.1513 28.3083 47.2871C27.4931 46.4229 27.0847 45.3827 27.0833 44.1667V29.8125C27.0833 28.7452 27.2569 27.8618 27.6042 27.1625C27.9514 26.4632 28.316 25.8559 28.6979 25.3406C29.0799 24.8254 29.4271 24.4117 29.7396 24.0996C30.0521 23.7875 30.2083 23.4834 30.2083 23.1875V22.0834C29.6181 22.0834 29.1236 21.8721 28.725 21.4496C28.3264 21.027 28.1264 20.5022 28.125 19.875C28.1236 19.2479 28.3236 18.7237 28.725 18.3027C29.1264 17.8816 29.6208 17.6696 30.2083 17.6667H40.625C41.2153 17.6667 41.7104 17.8787 42.1104 18.3027C42.5104 18.7267 42.7097 19.2508 42.7083 19.875C42.7069 20.4992 42.5069 21.0241 42.1083 21.4496C41.7097 21.875 41.2153 22.0863 40.625 22.0834V23.1875C40.625 23.482 40.7986 23.8132 41.1458 24.1813C41.4931 24.5493 41.875 24.991 42.2917 25.5063C42.6736 26.0215 43.0125 26.6288 43.3083 27.3281C43.6042 28.0275 43.7514 28.8556 43.75 29.8125V44.1667C43.75 45.3813 43.3424 46.4214 42.5271 47.2871C41.7118 48.1527 40.7306 48.5848 39.5833 48.5834H31.25ZM31.25 30.9167H39.5833V29.8125C39.5833 29.2604 39.4271 28.782 39.1146 28.3771C38.8021 27.9722 38.4549 27.5306 38.0729 27.0521C37.691 26.5736 37.3264 26.04 36.9792 25.4511C36.6319 24.8622 36.4583 24.1077 36.4583 23.1875V22.0834H34.375V23.1875C34.375 24.0709 34.2097 24.807 33.8792 25.3959C33.5486 25.9847 33.1931 26.5184 32.8125 26.9969C32.4319 27.4754 32.0757 27.9266 31.7437 28.3506C31.4118 28.7746 31.2472 29.2619 31.25 29.8125V30.9167ZM31.25 37.5417H39.5833V34.2292H31.25V37.5417ZM31.25 44.1667H39.5833V40.8542H31.25V44.1667Z" fill="#C62727"/>
</svg>
